<?xml version="1.0" encoding="utf-8"?>
<!-- Generator: Adobe Illustrator 19.0.0, SVG Export Plug-In . SVG Version: 6.00 Build 0)  -->
<svg version="1.0" id="Calque_1" xmlns="http://www.w3.org/2000/svg" xmlns:xlink="http://www.w3.org/1999/xlink" x="0px" y="0px"
	 viewBox="0 0 1920 1080" style="enable-background:new 0 0 1920 1080;" xml:space="preserve">
<style type="text/css">
	.st0{fill:#0000FF;}
	.st1{fill:#1B1464;}
	.st2{font-size:86.5115px;}
</style>
<g id="XMLID_5_">
	<path id="XMLID_4_" class="st0" d="M719.8,161.6V802h393c116.1,4.4,221.1-125.1,100.2-237.5c37.3,1.8,44.6-25.3,71.6-47.7
		c63.9,62.4,92.4,146.2,43.7,276.5c-42.1,72.8-110.7,117.1-224.1,113.5l-489-2.9V161.6L719.8,161.6z"/>
	<path id="XMLID_3_" class="st1" d="M853.7,781.8V138.5h256.2c117.7,15.5,159.9,87.7,139.7,206.7c-8.7,60.9-55.1,99.3-151.4,107.7
		H906.1l-0.3,98.6l211.5,0.8c124.5-12.3,218.6-67.6,243-204.2c11.9-165.2-50.3-277.7-210.8-311.5H746v745.2H853.7z"/>
	<text id="XMLID_2_" transform="matrix(1 0 0 1 490.8094 1042.209)" class="st2">Business Law And Politics</text>
	<path id="XMLID_1_" class="st1" d="M1282.4,512.6c-35.3,24.7-50.3,30.5-88.5,41.3c120.9,112.4,34.3,251.6-81.8,247.2h-19.9
		c2.3,18.4,8,35.5,12.8,54c3.4,13.1,2.3,30.1,8,42.2c1.4,2.9,2.3,5.8,3,8.7c105.8-0.1,171-43.6,211.5-113.6
		C1382.3,654.8,1346.3,575,1282.4,512.6z"/>
</g>
</svg>
